<svg xmlns="http://www.w3.org/2000/svg" width="26.821" height="27.297" viewBox="0 0 26.821 27.297">
  <g id="bdcb0c3f6d67999723518ef3c2ad5494" transform="translate(-9.8 -1)">
    <g id="Path_4" data-name="Path 4" fill="#ee3124">
      <path d="M 31.82882881164551 23.57905769348145 L 13.8848180770874 23.57905769348145 C 13.491868019104 23.57905769348145 13.12322807312012 23.37029838562012 12.92275810241699 23.03423881530762 C 12.72017765045166 22.69952774047852 12.70992755889893 22.27619743347168 12.89632797241211 21.93001747131348 L 16.04637336730957 16.06119918823242 L 13.51215839385986 8.367367744445801 C 13.50987815856934 8.36054801940918 13.50747776031494 8.353978157043457 13.50508785247803 8.347408294677734 C 13.50208759307861 8.33914852142334 13.49908828735352 8.330878257751465 13.4960880279541 8.321867942810059 L 11.85523223876953 3.340808153152466 L 11.02175807952881 3.340808153152466 C 10.40321826934814 3.340808153152466 9.899997711181641 2.837598085403442 9.899997711181641 2.219058036804199 C 9.899997711181641 1.602008104324341 10.40200805664062 1.099998116493225 11.01905822753906 1.099998116493225 L 12.66356754302979 1.099998116493225 C 13.14941787719727 1.099998116493225 13.57761764526367 1.409308075904846 13.72908782958984 1.869688034057617 L 15.37783908843994 6.871792793273926 L 35.39799880981445 6.826128005981445 C 35.77400970458984 6.826128005981445 36.12046813964844 7.00993824005127 36.32770919799805 7.317808151245117 C 36.53673934936523 7.628357887268066 36.57870864868164 8.019938468933105 36.43997955322266 8.365287780761719 L 33.15101623535156 16.58499717712402 C 32.9816780090332 17.0128173828125 32.57374954223633 17.28947830200195 32.11190795898438 17.28947830200195 L 17.9292106628418 17.28947830200195 L 15.75576210021973 21.34093856811523 L 31.82883834838867 21.34093856811523 C 32.4473762512207 21.34093856811523 32.95058822631836 21.84173774719238 32.95058822631836 22.45729827880859 C 32.95058822631836 23.07583808898926 32.44736862182617 23.57905769348145 31.82882881164551 23.57905769348145 Z M 18.06576728820801 15.04597854614258 L 31.35134506225586 15.04597854614258 L 33.74070739746094 9.069962501525879 L 16.11223220825195 9.109756469726562 L 18.06576728820801 15.04597854614258 Z" stroke="none"/>
      <path d="M 11.01905822753906 1.19999885559082 C 10.45560836791992 1.19999885559082 9.999996185302734 1.658308029174805 9.999996185302734 2.219058990478516 C 9.999996185302734 2.779808044433594 10.45560836791992 3.240808486938477 11.02175903320312 3.240808486938477 L 11.92757797241211 3.240808486938477 L 13.59095764160156 8.290258407592773 C 13.59634780883789 8.306438446044922 13.60173797607422 8.319917678833008 13.60713958740234 8.336088180541992 L 16.15477752685547 16.0706787109375 L 12.98437881469727 21.9774284362793 C 12.81453704833984 22.29284858703613 12.82262802124023 22.67566871643066 13.00863647460938 22.98300743103027 C 13.19195938110352 23.29033851623535 13.5262565612793 23.47905731201172 13.88481903076172 23.47905731201172 L 31.82882690429688 23.47905731201172 C 32.39228820800781 23.47905731201172 32.8505859375 23.02074813842773 32.8505859375 22.45729827880859 C 32.8505859375 21.89385795593262 32.39228820800781 21.44093704223633 31.82883834838867 21.44093704223633 L 15.58863830566406 21.44093704223633 L 17.86937713623047 17.18947792053223 L 32.11190795898438 17.18947792053223 C 32.52977752685547 17.18947792053223 32.90450668334961 16.93606758117676 33.05817794799805 16.54784774780273 L 36.34718704223633 8.327997207641602 C 36.47389984130859 8.012578964233398 36.43346786499023 7.654027938842773 36.24474716186523 7.373647689819336 C 36.0560302734375 7.093267440795898 35.73791885375977 6.926128387451172 35.40092849731445 6.926128387451172 L 35.39822769165039 6.926128387451172 L 15.30555725097656 6.971958160400391 L 13.63409805297852 1.900938034057617 C 13.49659729003906 1.483068466186523 13.10569763183594 1.19999885559082 12.66356658935547 1.19999885559082 L 11.01905822753906 1.19999885559082 M 31.41905784606934 15.14597797393799 L 17.99338722229004 15.14597797393799 L 15.97414779663086 9.010067939758301 L 33.88851928710938 8.96962833404541 L 31.41905784606934 15.14597797393799 M 11.01905822753906 0.9999980926513672 L 12.66356658935547 0.9999980926513672 C 13.19268798828125 0.9999980926513672 13.6590576171875 1.336938858032227 13.82407760620117 1.838428497314453 L 15.45011329650879 6.771627426147461 L 35.39776611328125 6.726127624511719 C 35.80735778808594 6.726127624511719 36.18482971191406 6.926448822021484 36.41066741943359 7.261968612670898 C 36.63821792602539 7.600048065185547 36.68386840820312 8.02642822265625 36.53277587890625 8.402547836303711 L 33.24386596679688 16.62214851379395 C 33.05945587158203 17.08800888061523 32.61503601074219 17.38947868347168 32.11190795898438 17.38947868347168 L 17.98904800415039 17.38947868347168 L 15.92289161682129 21.24093818664551 L 31.82883834838867 21.24093818664551 C 32.50251770019531 21.24093818664551 33.05058670043945 21.78659820556641 33.05058670043945 22.45729827880859 C 33.05058670043945 23.13097763061523 32.50251007080078 23.67905807495117 31.82882690429688 23.67905807495117 L 13.88481903076172 23.67905807495117 C 13.45682907104492 23.67905807495117 13.05527877807617 23.45160865783691 12.83687973022461 23.08546829223633 C 12.61637878417969 22.72114753723145 12.60516738891602 22.25982856750488 12.80828857421875 21.88260841369629 L 15.93796539306641 16.05172538757324 L 13.41114807128906 8.381687164306641 C 13.40782928466797 8.37255859375 13.4045295715332 8.363428115844727 13.40120697021484 8.35346794128418 L 11.78288650512695 3.440807342529297 L 11.02175903320312 3.440807342529297 C 10.34807968139648 3.440807342529297 9.799999237060547 2.892738342285156 9.799999237060547 2.219058990478516 C 9.799999237060547 1.546867370605469 10.34686660766602 0.9999980926513672 11.01905822753906 0.9999980926513672 Z M 31.28362655639648 14.94597816467285 L 33.59288787841797 9.170296669006348 L 16.25031471252441 9.209445953369141 L 18.13812446594238 14.94597816467285 L 31.28362655639648 14.94597816467285 Z" stroke="none" fill="#ee3124"/>
    </g>
    <g id="Path_5" data-name="Path 5" transform="translate(-182.348 -872.526)" fill="#ee3124">
      <path d="M 198.7614440917969 900.7229614257812 C 197.9555969238281 900.7229614257812 197.2999877929688 900.0674438476562 197.2999877929688 899.2616577148438 C 197.2999877929688 898.4557495117188 197.9555969238281 897.8001098632812 198.7614440917969 897.8001098632812 C 199.5672912597656 897.8001098632812 200.2228851318359 898.4557495117188 200.2228851318359 899.2616577148438 C 200.2228851318359 900.0674438476562 199.5672912597656 900.7229614257812 198.7614440917969 900.7229614257812 Z" stroke="none"/>
      <path d="M 198.7614440917969 897.9000854492188 C 198.00927734375 897.9000854492188 197.3999938964844 898.5094604492188 197.3999938964844 899.2616577148438 C 197.3999938964844 900.0137329101562 198.00927734375 900.6229858398438 198.7614440917969 900.6229858398438 C 199.5135955810547 900.6229858398438 200.1228790283203 900.0137329101562 200.1228790283203 899.2616577148438 C 200.1228790283203 898.5094604492188 199.5135955810547 897.9000854492188 198.7614440917969 897.9000854492188 M 198.7614440917969 897.7000732421875 C 199.6224212646484 897.7000732421875 200.3228759765625 898.400634765625 200.3228759765625 899.2616577148438 C 200.3228759765625 900.12255859375 199.6224212646484 900.822998046875 198.7614440917969 900.822998046875 C 197.9004516601562 900.822998046875 197.1999969482422 900.12255859375 197.1999969482422 899.2616577148438 C 197.1999969482422 898.400634765625 197.9004516601562 897.7000732421875 198.7614440917969 897.7000732421875 Z" stroke="none" fill="#ee3124"/>
    </g>
    <g id="Path_6" data-name="Path 6" transform="translate(-630.531 -872.526)" fill="#ee3124">
      <path d="M 659.3614501953125 900.7229614257812 C 658.5556030273438 900.7229614257812 657.9000244140625 900.0674438476562 657.9000244140625 899.2616577148438 C 657.9000244140625 898.4557495117188 658.5556030273438 897.8001098632812 659.3614501953125 897.8001098632812 C 660.1643676757812 897.8001098632812 660.8199462890625 898.45556640625 660.8228759765625 899.2612915039062 C 660.8228759765625 900.0674438476562 660.1672973632812 900.7229614257812 659.3614501953125 900.7229614257812 Z" stroke="none"/>
      <path d="M 659.3614501953125 897.9000854492188 C 658.6092529296875 897.9000854492188 658 898.5094604492188 658 899.2616577148438 C 658 900.0137329101562 658.6092529296875 900.6229858398438 659.3614501953125 900.6229858398438 C 660.1136474609375 900.6229858398438 660.722900390625 900.0137329101562 660.722900390625 899.2616577148438 C 660.7201538085938 898.5094604492188 660.1109008789062 897.9000854492188 659.3614501953125 897.9000854492188 M 659.3614501953125 897.7000732421875 C 660.2192993164062 897.7000732421875 660.9197387695312 898.4002685546875 660.9229125976562 899.2609252929688 C 660.9229125976562 900.12255859375 660.222412109375 900.822998046875 659.3614501953125 900.822998046875 C 658.50048828125 900.822998046875 657.7999877929688 900.12255859375 657.7999877929688 899.2616577148438 C 657.7999877929688 898.400634765625 658.50048828125 897.7000732421875 659.3614501953125 897.7000732421875 Z" stroke="none" fill="#ee3124"/>
    </g>
  </g>
</svg>
