<svg xmlns="http://www.w3.org/2000/svg" width="48.049" height="47.881" viewBox="0 0 48.049 47.881">
  <g id="Group_108" data-name="Group 108" transform="translate(-799.508 -633)">
    <path id="Path_514" data-name="Path 514" d="M838.221,642.684c.96-.958,1.885-1.884,2.812-2.806a2.819,2.819,0,0,1,4.336.006q.621.618,1.238,1.24a2.8,2.8,0,0,1,0,4.2c-1.153,1.169-2.321,2.323-3.483,3.483q-7.659,7.648-15.313,15.3a2.712,2.712,0,0,1-1.332.753c-1.641.4-3.274.831-4.912,1.239-1.019.254-1.629-.349-1.363-1.348.458-1.721.936-3.436,1.393-5.157a1.976,1.976,0,0,1,.575-.9q6.759-6.738,13.519-13.476a1.322,1.322,0,0,0,.424-1.037c-.019-2.334-.008-4.668-.01-7a1.921,1.921,0,0,0-2.161-2.153q-15.171,0-30.342,0a1.915,1.915,0,0,0-2.142,2.169q0,16.373,0,32.744a1.974,1.974,0,0,0,2.247,2.232q7.136,0,14.271-.006a1.913,1.913,0,0,1,1.184.378q3.578,2.571,7.177,5.111c.122.086.244.275.4.2s.069-.288.07-.438c.007-.931-.009-1.862.009-2.792.007-.356-.085-.507-.475-.5a.937.937,0,0,1-1.042-.97.972.972,0,0,1,1.1-.972c2.512,0,5.025,0,7.538,0A1.955,1.955,0,0,0,836.109,670q0-4.968,0-9.936a3.459,3.459,0,0,1,.017-.52.952.952,0,0,1,1.008-.81.926.926,0,0,1,.925.892c.021.378.008.757.008,1.136q0,4.755,0,9.511a3.826,3.826,0,0,1-3.845,3.851c-1.6.006-3.193,0-4.789,0-.658,0-.659,0-.66.637,0,1.609-.006,3.218,0,4.826a1.062,1.062,0,0,1-1.841.93c-2.773-1.986-5.556-3.959-8.322-5.954a2.219,2.219,0,0,0-1.393-.45c-4.567.018-9.133.012-13.7.01a3.857,3.857,0,0,1-4.01-3.988q0-16.537,0-33.075a3.911,3.911,0,0,1,4.025-4.053c3.176-.015,6.353,0,9.529,0q10.455,0,20.908,0a3.92,3.92,0,0,1,4.034,3.054,5.847,5.847,0,0,1,.129,1.314q0,2.365,0,4.732A1,1,0,0,0,838.221,642.684ZM826.689,662.3c.229-.041.332-.215.462-.345q7.338-7.319,14.673-14.642c.547-.546,1.089-1.1,1.645-1.635.187-.182.2-.3,0-.495-.7-.665-1.389-1.335-2.046-2.037-.324-.346-.52-.355-.864-.007-2.576,2.6-5.173,5.179-7.763,7.765q-4.22,4.212-8.444,8.421c-.249.247-.314.4-.024.677.712.67,1.391,1.375,2.086,2.064C826.5,662.15,826.6,662.224,826.689,662.3Zm16.509-21.4a.646.646,0,0,0-.665.329c-.135.267.171.37.308.512q.918.949,1.869,1.868c.132.128.233.4.486.272a.7.7,0,0,0,.349-.633.885.885,0,0,0-.3-.67q-.7-.7-1.4-1.4A.82.82,0,0,0,843.2,640.894Zm-20.343,22.822c.547-.15,1.109-.3,1.669-.462.156-.045.141-.15.043-.249q-.6-.6-1.2-1.2c-.125-.125-.222-.108-.272.065-.157.543-.316,1.087-.462,1.634C822.59,663.654,822.668,663.742,822.855,663.716Z" fill="#fff"/>
    <path id="Path_515" data-name="Path 515" d="M820.8,650.369h-4.645c-.142,0-.285.005-.426,0a.963.963,0,0,1-.951-.977.93.93,0,0,1,.952-.967q5.1-.014,10.191,0a.93.93,0,0,1,.952.967.951.951,0,0,1-1,.974c-1.69.012-3.381,0-5.072,0Z" fill="#fff"/>
    <path id="Path_516" data-name="Path 516" d="M812.858,664.03q2.156,0,4.311,0c.723,0,1.154.358,1.163.954a1.012,1.012,0,0,1-1.138,1q-4.333.008-8.668,0c-.867,0-1.373-.7-1.037-1.4a.959.959,0,0,1,.964-.549C809.921,664.035,811.39,664.03,812.858,664.03Z" fill="#fff"/>
    <path id="Path_517" data-name="Path 517" d="M812.2,640.57c1.215,0,2.43-.013,3.644.005a1,1,0,0,1,1.054,1.346,1.068,1.068,0,0,1-1.1.663c-.678.016-1.356.006-2.034.006h-4.875a4.664,4.664,0,0,1-.473-.011,1,1,0,1,1,.045-2c1.246-.019,2.492-.006,3.738-.006Z" fill="#fff"/>
    <path id="Path_518" data-name="Path 518" d="M822.984,640.569c.9,0,1.8,0,2.7,0,.726.006,1.187.4,1.189,1a1.03,1.03,0,0,1-1.14,1.008q-2.746.024-5.492,0a1.03,1.03,0,0,1-1.148-1c0-.6.464-1,1.193-1.005C821.185,640.563,822.084,640.569,822.984,640.569Z" fill="#fff"/>
    <path id="Path_519" data-name="Path 519" d="M810.173,648.414c.583,0,1.167-.006,1.75,0a.971.971,0,1,1,.034,1.941q-1.8.031-3.6,0a.979.979,0,0,1-.976-1.01.962.962,0,0,1,1.037-.931h1.751Z" fill="#fff"/>
    <path id="Path_520" data-name="Path 520" d="M817.172,658.2c-.472,0-.945.011-1.418,0-.75-.021-1.171-.394-1.17-1.012s.424-.994,1.172-1q1.418-.011,2.836,0c.743.006,1.173.381,1.173,1s-.429.99-1.175,1.011C818.118,658.215,817.645,658.2,817.172,658.2Z" fill="#fff"/>
    <path id="Path_521" data-name="Path 521" d="M810.3,658.186a8.969,8.969,0,0,1-1.037-.007.96.96,0,0,1-.937-1.035.972.972,0,0,1,1.028-.949c.629-.022,1.26-.021,1.888,0a.972.972,0,0,1,1.03.947.96.96,0,0,1-.935,1.037A8.967,8.967,0,0,1,810.3,658.186Z" fill="#fff"/>
    <path id="Path_522" data-name="Path 522" d="M830.312,642.575a4.284,4.284,0,0,1-1.085-.04,1,1,0,0,1-.79-.942.943.943,0,0,1,.762-.956,6.469,6.469,0,0,1,2.259,0,.883.883,0,0,1,.728.969,1.1,1.1,0,0,1-.974.968C830.912,642.579,830.612,642.575,830.312,642.575Z" fill="#fff"/>
  </g>
</svg>
