<svg xmlns="http://www.w3.org/2000/svg" width="30.066" height="25.737" viewBox="0 0 30.066 25.737">
  <g id="Path_1" data-name="Path 1" transform="translate(-9.8 -81.3)" fill="#ee3124">
    <path d="M 24.83609962463379 106.9372863769531 C 24.59461975097656 106.9372863769531 24.36846923828125 106.844108581543 24.19929885864258 106.6749267578125 C 23.50299835205078 105.9847030639648 22.86501884460449 105.4990310668945 21.5939884185791 104.5314712524414 L 21.52104949951172 104.4759521484375 C 20.73006820678711 103.8739318847656 19.74567794799805 103.1247024536133 18.42916870117188 102.0844268798828 C 14.829758644104 99.25111389160156 9.899998664855957 95.37058258056641 9.899998664855957 89.78838348388672 C 9.899998664855957 84.34385681152344 14.05967903137207 81.40605926513672 17.9735279083252 81.40605926513672 C 20.57026290893555 81.40605926513672 23.00171279907227 82.60394287109375 24.83301734924316 84.78239440917969 C 26.66511154174805 82.60011291503906 29.09988594055176 81.39999389648438 31.70168876647949 81.39999389648438 C 35.61113739013672 81.39999389648438 39.76613998413086 84.32082366943359 39.76613998413086 89.73387908935547 C 39.76613998413086 95.58769989013672 34.22675704956055 99.80999755859375 31.25080871582031 102.078369140625 L 31.22952842712402 102.0945892333984 L 29.43726921081543 103.4539184570312 L 29.3925895690918 103.48779296875 C 27.19741821289062 105.1520538330078 26.37604904174805 105.774772644043 25.47276878356934 106.675048828125 C 25.3037281036377 106.844108581543 25.07757949829102 106.9372863769531 24.83609962463379 106.9372863769531 Z M 17.9735279083252 83.20741271972656 C 14.93293857574463 83.20741271972656 11.7013692855835 85.51387786865234 11.7013692855835 89.78838348388672 C 11.7013692855835 94.50050354003906 16.23007965087891 98.05996704101562 19.53679847717285 100.6589813232422 C 20.87385940551758 101.7162628173828 21.84267807006836 102.4542007446289 22.62112808227539 103.0471420288086 L 22.6838493347168 103.0949096679688 C 23.62198638916016 103.8081283569336 24.25384330749512 104.2885055541992 24.82935333251953 104.7959289550781 C 25.63356971740723 104.0713806152344 26.55564308166504 103.3727035522461 28.34472846984863 102.0170822143555 L 30.13684844970703 100.6608810424805 C 33.9255485534668 97.78170776367188 37.96780776977539 94.32534027099609 37.96780776977539 89.73387908935547 C 37.96780776977539 85.49282836914062 34.74090957641602 83.20440673828125 31.70471954345703 83.20440673828125 C 29.33937835693359 83.20440673828125 27.10777854919434 84.51007080078125 25.58211898803711 86.78659820556641 C 25.43002891540527 87.01473236083984 25.14996910095215 87.15104675292969 24.83307838439941 87.15104675292969 C 24.51617813110352 87.15104675292969 24.23611831665039 87.01473236083984 24.08388900756836 86.78639984130859 C 22.56261825561523 84.51194763183594 20.33544921875 83.20741271972656 17.9735279083252 83.20741271972656 Z" stroke="none"/>
    <path d="M 31.70168876647949 81.49999237060547 C 29.08622932434082 81.49999237060547 26.65541839599609 82.71994781494141 24.83306884765625 84.93887329101562 C 23.01071929931641 82.72296905517578 20.58293914794922 81.50605773925781 17.9735279083252 81.50605773925781 C 14.10784912109375 81.50605773925781 10 84.40606689453125 10 89.78838348388672 C 10 95.32201385498047 14.90702056884766 99.18466186523438 18.49116897583008 102.005973815918 C 19.84733963012695 103.0775833129883 20.8432788848877 103.8343887329102 21.6545581817627 104.4518966674805 C 22.93504905700684 105.4266738891602 23.5767993927002 105.9170532226562 24.27001953125 106.6042175292969 C 24.42137908935547 106.7555999755859 24.62116813659668 106.837287902832 24.83609962463379 106.837287902832 C 25.04799842834473 106.837287902832 25.25081825256348 106.7555999755859 25.40217971801758 106.6042175292969 C 26.31637954711914 105.6930465698242 27.14884948730469 105.0633773803711 29.37683868408203 103.3742370605469 L 31.16890907287598 102.0150604248047 C 34.13552856445312 99.75376892089844 39.6661376953125 95.55207061767578 39.6661376953125 89.73387908935547 C 39.6661376953125 84.38488006591797 35.56433868408203 81.49999237060547 31.70168876647949 81.49999237060547 M 24.83004951477051 104.9302139282227 C 24.23974800109863 104.4034805297852 23.58285903930664 103.9039993286133 22.62324905395508 103.1744613647461 C 21.84828948974609 102.5841522216797 20.84932899475098 101.824348449707 19.47500801086426 100.7376022338867 C 16.15118026733398 98.12515258789062 11.60136032104492 94.54402923583984 11.60136032104492 89.78838348388672 C 11.60136032104492 85.44741821289062 14.88582992553711 83.10740661621094 17.9735279083252 83.10740661621094 C 20.36800956726074 83.10740661621094 22.62627792358398 84.42725372314453 24.16709899902344 86.73092651367188 C 24.45164489746094 87.15775299072266 25.2144947052002 87.15776062011719 25.49904823303223 86.73092651367188 C 27.04289817810059 84.42725372314453 29.3011589050293 83.10440826416016 31.70471954345703 83.10440826416016 C 34.78939819335938 83.10440826416016 38.06781005859375 85.42926025390625 38.06781005859375 89.73387908935547 C 38.06781005859375 94.36844635009766 34.0053596496582 97.84665679931641 30.19718933105469 100.7406234741211 L 28.40511894226074 102.0967788696289 C 26.54341888427734 103.5074310302734 25.6382884979248 104.1946105957031 24.83004951477051 104.9302139282227 M 31.70168876647949 81.29998779296875 C 35.65961837768555 81.29998779296875 39.86613845825195 84.255859375 39.86613845825195 89.73387908935547 C 39.86613845825195 95.63722229003906 34.30113983154297 99.87904357910156 31.31142807006836 102.1578979492188 L 31.2901496887207 102.1741180419922 L 29.45341873168945 103.5671615600586 C 27.26190948486328 105.228630065918 26.44190979003906 105.8503112792969 25.54336929321289 106.7458801269531 C 25.35555839538574 106.933708190918 25.10428810119629 107.0372924804688 24.83609962463379 107.0372924804688 C 24.56790924072266 107.0372924804688 24.3166389465332 106.933708190918 24.12858963012695 106.7456283569336 C 23.43722915649414 106.0603103637695 22.80098915100098 105.5759735107422 21.53341865539551 104.6110382080078 L 21.46047973632812 104.5555191040039 C 20.669189453125 103.9532623291016 19.68439865112305 103.203727722168 18.36716842651367 102.1628875732422 C 14.75180816650391 99.31700897216797 9.799999237060547 95.41912841796875 9.799999237060547 89.78838348388672 C 9.799999237060547 84.27890777587891 14.01119995117188 81.30606079101562 17.9735279083252 81.30606079101562 C 20.56419372558594 81.30606079101562 22.99139785766602 82.48369598388672 24.83296585083008 84.62790679931641 C 26.67542839050293 82.47965240478516 29.10582160949707 81.29998779296875 31.70168876647949 81.29998779296875 Z M 24.82861709594727 104.6622924804688 C 25.62062454223633 103.9557342529297 26.54180717468262 103.2577285766602 28.28432846069336 101.937370300293 L 30.07649803161621 100.5811386108398 C 33.84593963623047 97.71661376953125 37.8678092956543 94.27957153320312 37.8678092956543 89.73387908935547 C 37.8678092956543 85.55777740478516 34.69244003295898 83.30441284179688 31.70471954345703 83.30441284179688 C 29.37328910827637 83.30441284179688 27.17196846008301 84.59391021728516 25.66518974304199 86.84226989746094 C 25.49463844299316 87.09809112548828 25.18346977233887 87.25105285644531 24.83306884765625 87.25105285644531 C 24.48266792297363 87.25105285644531 24.17149925231934 87.09808349609375 24.00068855285645 86.84187316894531 C 22.49837875366211 84.59575653076172 20.30149841308594 83.30741119384766 17.9735279083252 83.30741119384766 C 14.98140716552734 83.30741119384766 11.80135726928711 85.57882690429688 11.80135726928711 89.78838348388672 C 11.80135726928711 94.45191192626953 16.30799865722656 97.9940185546875 19.59859848022461 100.5803604125977 C 20.93517875671387 101.6372604370117 21.90358924865723 102.3748931884766 22.68172836303711 102.9675903320312 L 22.74443817138672 103.0153579711914 C 23.6482048034668 103.7024459838867 24.26822090148926 104.1738052368164 24.82861709594727 104.6622924804688 Z" stroke="none" fill="#ee3124"/>
  </g>
</svg>
