<svg xmlns="http://www.w3.org/2000/svg" width="36.876" height="47.881" viewBox="0 0 36.876 47.881">
  <g id="Group_109" data-name="Group 109" transform="translate(-885.1 -515.921)">
    <path id="Path_523" data-name="Path 523" d="M904.661,515.921a10.45,10.45,0,0,1,2.569.958,4.787,4.787,0,0,0,2.113.514,6.912,6.912,0,0,1,5.845,3.3,5.7,5.7,0,0,0,1.771,1.826,7.105,7.105,0,0,1,3.5,6.125,4.759,4.759,0,0,0,.556,2.1,7.01,7.01,0,0,1-.006,7.086,7.024,7.024,0,0,0-.618,2.8,6.876,6.876,0,0,1-3.238,5.3,10.14,10.14,0,0,0-1.114.845.565.565,0,0,0-.147.773q2.539,5.385,5.048,10.783a1.008,1.008,0,0,1-.232,1.339,1.236,1.236,0,0,1-1.029.15c-1.42-.273-2.844-.527-4.257-.831a.571.571,0,0,0-.731.363c-.659,1.236-1.334,2.464-2,3.7a1.2,1.2,0,0,1-.8.724,1,1,0,0,1-1.181-.686c-.784-1.661-1.559-3.326-2.338-4.989-.825-1.762-1.66-3.519-2.47-5.288a.478.478,0,0,0-.675-.317,6.6,6.6,0,0,1-3.321.018c-.312-.077-.459-.036-.6.278-1.586,3.416-3.192,6.823-4.788,10.236a1.083,1.083,0,0,1-.959.764,1.053,1.053,0,0,1-1.016-.681c-.686-1.275-1.392-2.538-2.073-3.816a.507.507,0,0,0-.663-.3c-1.43.3-2.868.559-4.3.834a1.087,1.087,0,0,1-1.187-.33,1.1,1.1,0,0,1-.036-1.231c1.653-3.522,3.3-7.049,4.964-10.565a.638.638,0,0,0-.138-.858,6.682,6.682,0,0,0-1.063-.835,7.054,7.054,0,0,1-3.421-6.026,5.148,5.148,0,0,0-.6-2.232,6.918,6.918,0,0,1,.006-6.916,7.468,7.468,0,0,0,.661-2.931,6.731,6.731,0,0,1,3.046-5.117,8.2,8.2,0,0,0,2.29-2.283,6.824,6.824,0,0,1,5.711-3.11,4.908,4.908,0,0,0,2.114-.51,10.454,10.454,0,0,1,2.569-.961Zm15.3,18.334a4.656,4.656,0,0,0-.62-2.415,7.675,7.675,0,0,1-.892-3.4,4.786,4.786,0,0,0-2.245-4.037,9.52,9.52,0,0,1-2.809-2.814,4.746,4.746,0,0,0-3.961-2.2,7.425,7.425,0,0,1-3.314-.849,5.085,5.085,0,0,0-5.163,0,7.124,7.124,0,0,1-3.222.84,4.881,4.881,0,0,0-4.16,2.36,8.482,8.482,0,0,1-2.626,2.606,4.817,4.817,0,0,0-2.315,4.047,7.94,7.94,0,0,1-.9,3.442,5.031,5.031,0,0,0,.048,5,6.812,6.812,0,0,1,.832,3.079,5,5,0,0,0,2.392,4.343,8.409,8.409,0,0,1,2.578,2.588,4.791,4.791,0,0,0,3.988,2.323,8.545,8.545,0,0,1,3.66.983,4.722,4.722,0,0,0,4.612,0,8.6,8.6,0,0,1,3.661-.982,4.705,4.705,0,0,0,3.9-2.212,9.681,9.681,0,0,1,2.853-2.836,4.794,4.794,0,0,0,2.187-4.023,7.489,7.489,0,0,1,.888-3.348A4.823,4.823,0,0,0,919.962,534.255Zm-1.64,23.274a1.138,1.138,0,0,0-.03-.176q-1.87-3.995-3.738-7.991c-.143-.307-.254-.311-.5-.09a7.026,7.026,0,0,1-4.828,1.915,4.461,4.461,0,0,0-1.415.269c-.236.081-.273.187-.167.413q1.967,4.182,3.921,8.37c.044.094.064.237.192.236s.149-.142.2-.234c.5-.915.992-1.834,1.5-2.745a1.067,1.067,0,0,1,1.39-.625C915.991,557.09,917.134,557.3,918.322,557.53Zm-29.5.015c1.2-.227,2.3-.437,3.393-.643.967-.181,1.161-.083,1.638.795.518.953,1.042,1.9,1.591,2.906.07-.129.109-.193.141-.26q.924-1.965,1.846-3.93c.693-1.479,1.379-2.963,2.084-4.437.135-.283.1-.412-.205-.508a4.97,4.97,0,0,0-1.462-.279,6.975,6.975,0,0,1-4.723-1.826c-.308-.273-.407-.173-.55.137-.677,1.47-1.371,2.932-2.057,4.4C889.963,555.08,889.414,556.264,888.819,557.544Z" fill="#fff"/>
    <path id="Path_524" data-name="Path 524" d="M909.242,552.807a11.919,11.919,0,0,0,4.354-23.061c-.131-.049-.265-.093-.393-.147a.989.989,0,1,1,.684-1.853,13.706,13.706,0,0,1,7.313,5.878,13.41,13.41,0,0,1,2.06,7.5,13.927,13.927,0,1,1-18.725-13.3,1.456,1.456,0,0,1,.813-.157,1.042,1.042,0,0,1,.828.9,1.025,1.025,0,0,1-.724,1.032,12.264,12.264,0,0,0-2.237,1.047,11.707,11.707,0,0,0-5.726,8.948A11.913,11.913,0,0,0,907.6,552.7C908.173,552.779,908.747,552.768,909.242,552.807Z" transform="translate(-5.795 -6.605)" fill="#fff"/>
    <path id="Path_525" data-name="Path 525" d="M916.725,552.157q-3.41,0-6.82,0c-1.109,0-1.456-.348-1.461-1.449a7.243,7.243,0,0,1,4.68-7.172c.323-.134.292-.249.152-.5a6.078,6.078,0,0,1,.019-5.3,4.017,4.017,0,0,1,4.244-1.875,3.86,3.86,0,0,1,3.134,3.246,5.831,5.831,0,0,1-.527,4.037c-.21.317.063.319.234.39a7.169,7.169,0,0,1,4.489,5.346,8.5,8.5,0,0,1,.142,2.229,1.049,1.049,0,0,1-1.185,1.046c-1.682.011-3.364,0-5.045,0Zm0-2.006c1.93,0,3.86-.009,5.79.007.393,0,.527-.122.483-.514a5.285,5.285,0,0,0-4.618-4.57c-.6-.055-.643-.016-.646.577,0,.187.008.375-.006.56a1.021,1.021,0,0,1-.909.971.992.992,0,0,1-1.043-.814,3.232,3.232,0,0,1-.043-.835c.022-.376-.135-.515-.494-.465-.123.017-.248.02-.37.043a5.162,5.162,0,0,0-4.355,4.443c-.1.593-.1.6.514.6Zm2.068-9.761c0-.187.01-.374,0-.56a2.048,2.048,0,0,0-2.14-2.054,1.989,1.989,0,0,0-1.924,2.137c0,.4-.008.809.006,1.213a1.991,1.991,0,0,0,1.768,1.917,2.05,2.05,0,0,0,2.208-1.541A4.119,4.119,0,0,0,918.792,540.391Z" transform="translate(-13.138 -11.179)" fill="#fff"/>
    <path id="Path_526" data-name="Path 526" d="M927,527.095a.964.964,0,1,1-.967-.974A.952.952,0,0,1,927,527.095Z" transform="translate(-22.497 -5.741)" fill="#fff"/>
  </g>
</svg>
