<svg xmlns="http://www.w3.org/2000/svg" width="26" height="26" viewBox="0 0 26 26">
  <g id="Group_219" data-name="Group 219" transform="translate(-3813 77)">
    <path id="Path_2" data-name="Path 2" d="M689.973,574.24a11.881,11.881,0,0,0-5.553-8.744,1.18,1.18,0,1,0-1.235,2.011,9.5,9.5,0,0,1,4.445,6.992,1.18,1.18,0,0,0,1.17,1.051,1.219,1.219,0,0,0,.132-.007A1.179,1.179,0,0,0,689.973,574.24Z" transform="translate(3149.02 -626.552)" fill="#ee3124"/>
    <path id="Path_3" data-name="Path 3" d="M31.342,15.1a8.036,8.036,0,0,0-16.064,0,7.535,7.535,0,0,0,.448,2.573,1.347,1.347,0,0,0,1.7.8,1.289,1.289,0,0,0,.823-1.654,5.049,5.049,0,0,1-.3-1.718,5.358,5.358,0,0,1,10.711,0,5.285,5.285,0,0,1-5.356,5.2A13.229,13.229,0,0,0,10,31.857a1.31,1.31,0,0,0,1.185,1.435,1.417,1.417,0,0,0,.149.008,1.324,1.324,0,0,0,1.329-1.158A10.578,10.578,0,0,1,23.31,22.9,7.927,7.927,0,0,0,31.342,15.1Z" transform="translate(3803.004 -84.3)" fill="#ee3124"/>
  </g>
</svg>
