<svg xmlns="http://www.w3.org/2000/svg" width="46.647" height="46.784" viewBox="0 0 46.647 46.784">
  <g id="Group_107" data-name="Group 107" transform="translate(-1057.353 -673.358)">
    <path id="Path_511" data-name="Path 511" d="M1091.468,673.358a8.588,8.588,0,0,1,3.47,1.317,10.139,10.139,0,0,1,4.233,6.933,7.542,7.542,0,0,1,.086,1.729c-.028.453.1.617.578.6,1.019-.036,2.04-.014,3.061-.01a.984.984,0,0,1,1.1.907.961.961,0,0,1-1.022.992c-1.14.043-2.283.046-3.424.032a.636.636,0,0,0-.745.529,10.778,10.778,0,0,1-3.1,4.865c-2.533,2.4-5.016,4.845-7.521,7.27q-2.331,2.256-4.668,4.5a1.009,1.009,0,0,1-1.662.018q-2.907-2.775-5.791-5.575a.971.971,0,0,1-.114-1.455,1,1,0,0,1,1.493.083c1.625,1.562,3.25,3.123,4.86,4.7.272.266.429.31.73.018q5.829-5.668,11.683-11.311a8.493,8.493,0,0,0,2.064-3.142c.172-.454.143-.49-.348-.494-.594-.005-1.188.008-1.782-.005a.72.72,0,0,0-.65.336q-.9,1.239-1.823,2.459a1.018,1.018,0,0,1-1.851-.038c-.35-.5-.706-.993-1.039-1.5-.187-.285-.295-.292-.448.026-.4.822-.818,1.633-1.219,2.453a1.045,1.045,0,0,1-.933.692,1.011,1.011,0,0,1-.96-.646q-1.368-2.532-2.741-5.06c-.093-.17-.19-.338-.32-.571-.247.445-.461.824-.669,1.207q-1.188,2.187-2.368,4.379a1.012,1.012,0,0,1-1.932-.038c-.4-.82-.824-1.63-1.223-2.452-.131-.27-.231-.274-.395-.032-.341.5-.693,1-1.042,1.5-.6.86-1.281.88-1.9.052-.567-.755-1.145-1.5-1.681-2.279a1,1,0,0,0-.988-.492,14.433,14.433,0,0,1-1.6,0c-.4-.017-.477.106-.334.477a9.064,9.064,0,0,0,2.452,3.529,4.833,4.833,0,0,1,.459.444.966.966,0,0,1-1.365,1.366,11.025,11.025,0,0,1-3.567-5.306.6.6,0,0,0-.705-.512c-.958.024-1.918.01-2.877.006a5.576,5.576,0,0,1-.683-.044.947.947,0,0,1,.085-1.892c1.05-.009,2.1-.023,3.152.006.443.012.56-.13.564-.568a10.256,10.256,0,0,1,4.168-8.571,8.52,8.52,0,0,1,3.614-1.439h2.467c.532.124,1.071.222,1.593.378a10.148,10.148,0,0,1,4.351,2.662c.293.3.511.35.821.02a10.16,10.16,0,0,1,1.057-.939,10.513,10.513,0,0,1,4.88-2.121ZM1078.7,687.235c.435-.8.82-1.5,1.2-2.21.616-1.137,1.222-2.28,1.851-3.41a.98.98,0,0,1,1.829-.006c.062.1.116.214.174.321q1.317,2.427,2.635,4.855c.056.1.089.263.218.272.172.014.189-.175.247-.287a20.254,20.254,0,0,0,1-2,1.08,1.08,0,0,1,2.068-.141c.339.575.761,1.1,1.133,1.658.166.248.286.257.464.008.452-.631.929-1.244,1.382-1.875a1.126,1.126,0,0,1,1.01-.5c.944.016,1.888.006,2.832,0,.558,0,.639-.061.621-.628a9.056,9.056,0,0,0-.363-2.52c-.843-2.608-2.319-4.651-5.135-5.313a7.451,7.451,0,0,0-6.416,1.445c-.545.411-1.027.9-1.554,1.34a1.688,1.688,0,0,1-2.4.055,5.634,5.634,0,0,1-.483-.418,8.983,8.983,0,0,0-2.875-1.987c-2.678-1.039-5.258-.962-7.472,1.038a8.187,8.187,0,0,0-2.672,6.64c.01.291.155.352.407.351,1.005-.007,2.01.008,3.014-.007a1.14,1.14,0,0,1,1.009.509c.457.627.934,1.24,1.386,1.871.18.25.286.245.456-.011.386-.584.8-1.152,1.2-1.725.664-.947,1.444-.883,1.97.162C1077.843,685.528,1078.245,686.328,1078.7,687.235Z" fill="#fff"/>
    <path id="Path_512" data-name="Path 512" d="M1079.315,720.142c-3.318-.78-6.542-1.9-9.836-2.763a11.56,11.56,0,0,0-3.018-.42c-.255,0-.409.051-.487.345a2.345,2.345,0,0,1-2.2,1.887,22.234,22.234,0,0,1-4.239-.021,2.41,2.41,0,0,1-2.165-2.433c-.022-2.877-.027-5.755,0-8.633a2.432,2.432,0,0,1,2.5-2.43c1.218,0,2.436.01,3.654,0a2.369,2.369,0,0,1,2.139,1.162.585.585,0,0,0,.592.315,3.109,3.109,0,0,0,1.572-.556,10.06,10.06,0,0,1,4.214-1.647,13.225,13.225,0,0,1,5.544.528q1.973.57,3.94,1.158a3.406,3.406,0,0,1,2.294,2.061c.147.365.3.361.607.207,2.369-1.184,4.745-2.353,7.117-3.529a3.822,3.822,0,0,1,2.692-.4,3.317,3.317,0,0,1,1.643,5.45,11.37,11.37,0,0,1-1.972,1.547q-4.6,3.3-9.219,6.578a9.356,9.356,0,0,1-3.457,1.593Zm-13.236-8.122c0,.837.013,1.675-.006,2.512-.008.361.124.478.479.474a10.539,10.539,0,0,1,2.219.23c2.449.5,4.806,1.334,7.21,2,.836.231,1.675.454,2.5.72a5.255,5.255,0,0,0,4.956-.891c2.2-1.588,4.412-3.148,6.619-4.722,1.326-.945,2.655-1.888,3.976-2.842a1.564,1.564,0,0,0,.731-1.644c-.264-.951-1.218-1.3-2.262-.782-2.787,1.37-5.567,2.756-8.351,4.132a1.182,1.182,0,0,0-.5.447,3.462,3.462,0,0,1-4.163,1.6c-1.024-.293-2.046-.593-3.068-.89-.628-.183-1.26-.354-1.883-.553a.988.988,0,0,1-.722-1,1.009,1.009,0,0,1,.843-.9,1.61,1.61,0,0,1,.713.121q2.412.7,4.822,1.4a1.551,1.551,0,0,0,1.891-1.011,1.522,1.522,0,0,0-1.059-1.9c-1.706-.506-3.391-1.088-5.134-1.46a8.577,8.577,0,0,0-7.07,1.205,4.841,4.841,0,0,1-2.342.827c-.321.034-.408.17-.4.466C1066.087,710.375,1066.079,711.2,1066.079,712.02Zm-6.752.422q0,2.007,0,4.015c0,.668.161.822.842.823q1.53,0,3.058,0c.707,0,.89-.184.891-.889q0-3.97,0-7.94c0-.67-.2-.881-.862-.885q-1.551-.01-3.1,0c-.624,0-.824.2-.825.815C1059.324,709.734,1059.327,711.088,1059.327,712.442Z" fill="#fff"/>
    <path id="Path_513" data-name="Path 513" d="M1073.681,694.769a.944.944,0,1,1,.049-1.885.961.961,0,0,1,.938.97A.946.946,0,0,1,1073.681,694.769Z" fill="#fff"/>
  </g>
</svg>
